PathFileType	4	(X/Y/Z)	C:/Users/beibeiliu/ov580/test_trc\sequence.27_training_dense_left.trc
DataRate	CameraRate	NumFrames	NumMarkers	Units	OrigDataRate	OrigDataStartFrame	OrigNumFrames
120	120	18	19	mm	120	1	75
Frame#	Time	ThumbCMC			ThumbMCP			ThumbIP			ThumbTip			IndexMCP			IndexPIP			IndexTip			MiddleMCP			MiddlePIP			MiddleTip			RingMCP			RingPIP			RingTip			PinkyMCP			PinkyPIP			PinkyTip			BackHand1			BackHand2			BackHand3	
		X0	Y0	Z0	X1	Y1	Z1	X2	Y2	Z2	X3	Y3	Z3	X4	Y4	Z4	X5	Y5	Z5	X6	Y6	Z6	X7	Y7	Z7	X8	Y8	Z8	X9	Y9	Z9	X10	Y10	Z10	X11	Y11	Z11	X12	Y12	Z12	X13	Y13	Z13	X14	Y14	Z14	X15	Y15	Z15	X16	Y16	Z16	X17	Y17	Z17	X18	Y18	Z18	
0	0	-129.802	44.6333	35.8263	-117.147	26.5492	16.8059	-107.431	16.3982	-3.58818	-105.997	3.38834	-25.3893	-141.59	40.6508	-31.7242	-135.528	26.4472	-51.7644	-129.448	0.674468	-66.789	-161.128	35.9755	-37.9289	-160.435	20.3211	-60.807	-157.782	-5.3554	-73.5256	-177.534	30.458	-32.781	-177.354	18.9191	-50.5365	-174.038	0.198404	-64.8226	-197.316	23.9521	-18.0698	-197.11	14.8937	-32.6031	-191.348	2.03139	-50.834	-180.955	51.6433	8.91119	-182.254	58.9346	39.0852	-157.106	62.1935	21.5064	
1	0.00833333	-132.048	44.8088	31.8421	-116.503	28.6507	13.768	-112.75	18.1844	-5.35945	-106.452	4.73696	-25.7804	-142.848	40.3132	-35.0501	-137.662	23.3331	-56.6855	-132.02	-1.41683	-67.2591	-161.372	35.4638	-42.1937	-160.781	22.2476	-61.0956	-158.551	-6.34042	-74.2714	-183.034	30.4498	-32.4872	-177.302	18.0552	-52.217	-173.114	-4.58724	-68.9436	-195.773	25.3881	-15.9716	-198.311	11.2194	-38.207	-195.849	0.833014	-51.7515	-183.838	50.8107	10.8849	-182.096	60.065	34.2565	-156.837	61.6346	17.9012	
2	0.0166667	-132.599	44.6339	33.0664	-118.412	29.194	15.8717	-109.358	17.1987	-8.83068	-106.932	7.01753	-22.0421	-137.811	39.2253	-38.9238	-138.15	24.443	-55.5695	-128.68	2.6383	-66.5949	-164.106	36.2556	-39.9103	-161.143	20.5958	-62.2503	-156.207	-4.40864	-74.7104	-178.206	32.0936	-31.776	-176.861	14.3407	-55.9991	-173.821	-5.14279	-68.1608	-197.638	25.225	-18.4708	-198.608	11.602	-37.0706	-193.178	-1.0318	-50.9344	-184.827	51.1649	9.19965	-181.497	58.4845	33.2554	-158.76	61.4204	19.8023	
3	0.025	-129.385	44.6725	28.4007	-119.158	28.4157	12.909	-110.709	17.6372	-6.71857	-105.054	6.84782	-20.699	-140.471	38.7405	-38.1863	-133.622	23.0412	-58.3343	-133.952	3.12394	-66.3138	-161.57	36.6497	-38.765	-160.925	18.615	-63.622	-158.283	-6.05928	-74.7524	-177.59	31.2302	-34.4646	-177.539	14.9454	-55.3358	-172.416	-0.286571	-66.3717	-192.466	25.819	-17.5214	-194.02	14.4175	-38.3865	-192.925	0.411988	-53.2002	-182.625	49.5519	6.3337	-185.3	57.5235	31.8152	-157.254	61.4351	16.6358	
4	0.0333333	-133.786	45.6236	32.4701	-117.476	29.7329	11.367	-107.548	19.285	-5.35159	-103.014	7.34763	-23.1522	-137.97	43.5425	-35.2223	-135.69	30.0259	-55.5565	-128.945	8.8605	-68.9111	-158.963	38.0557	-44.4448	-156.791	20.0794	-65.1734	-155.056	0.119753	-76.8825	-181.082	30.7509	-33.0829	-175.004	17.1474	-57.236	-171.484	-1.93289	-69.3222	-196.328	24.1186	-19.7833	-191.146	16.6936	-37.4438	-190.637	2.54966	-54.4314	-183.7	51.4295	6.79139	-180.167	59.5255	30.4835	-158.098	61.3117	17.0506	
5	0.0416667	-133.227	48.8405	28.1592	-117.637	34.5818	11.5701	-110.062	23.7724	-10.0968	-104.887	10.4867	-26.5067	-137.546	49.5645	-34.3161	-138.273	33.7608	-59.086	-129.562	18.1691	-72.0167	-161.764	41.0854	-43.5334	-156.851	29.4173	-65.3617	-155.831	7.17637	-80.9026	-180.299	34.0498	-34.2622	-176.156	21.6893	-58.5217	-172.051	7.84244	-71.5115	-192.933	28.3868	-21.0775	-189.989	21.421	-37.55	-188.393	7.21277	-55.2368	-180.755	54.0596	9.77039	-183.147	59.4181	32.1175	-155.779	64.9094	18.3759	
6	0.05	-130.722	52.8275	29.0061	-113.686	38.8214	10.3427	-111.118	27.232	-6.59354	-111.707	14.4519	-26.5255	-140.804	53.1386	-38.671	-135.076	46.0649	-56.8842	-131.801	29.8888	-75.7906	-160.561	46.3559	-44.828	-154.749	39.4989	-64.7899	-151.717	20.6955	-88.3113	-173.701	40.5345	-33.5667	-172.929	31.2423	-58.0561	-166.012	19.8411	-79.5964	-192.478	30.3517	-23.4249	-188.252	23.353	-44.7708	-185.59	15.8521	-60.8963	-178.638	54.0136	9.48216	-184.98	59.9288	32.8002	-159.615	67.746	19.3534	
7	0.0583333	-130.515	55.3794	35.1531	-111.763	43.2965	13.5427	-109.166	31.8783	-12.2366	-115.849	16.465	-28.8572	-138.217	59.7263	-36.2987	-133.243	52.9367	-60.3168	-133.098	43.683	-77.9508	-155.543	52.3542	-44.2843	-152.271	47.3662	-64.9727	-145.854	36.7824	-93.049	-170.152	45.0811	-35.3613	-171.594	37.9986	-59.2073	-166.837	32.9714	-78.3641	-188.41	34.6902	-27.5113	-183.886	31.0982	-42.6486	-181.123	25.6237	-65.5499	-182.049	53.933	8.60968	-183.536	59.8683	30.683	-155.762	70.6754	19.5694	
8	0.0666667	-128.097	54.831	33.5894	-111.022	45.5583	11.2296	-113.413	35.1862	-9.56944	-125.902	19.7557	-27.8703	-134.523	62.0038	-32.6392	-132.4	57.9	-59.2196	-127.377	53.7003	-81.6089	-151.07	55.8703	-40.2818	-150.244	51.4625	-67.1562	-146.353	48.7084	-90.1828	-167.463	47.079	-37.1563	-166.788	43.721	-58.1515	-160.195	43.1811	-80.2254	-184.579	36.4739	-23.6833	-179.031	35.3143	-41.61	-178.325	34.3254	-63.6736	-175.728	54.8976	7.16167	-181.487	58.9735	33.515	-153.863	68.0069	21.3796	
9	0.075	-127.651	53.1373	35.9403	-104.912	45.7963	11.3858	-107.105	35.6968	-10.0385	-124.562	21.3239	-22.6468	-129.298	61.044	-33.0423	-130.942	57.8766	-52.7233	-128.918	57.2291	-76.7841	-145.106	55.9127	-42.0904	-142.483	54.3629	-63.3113	-142.543	53.134	-86.9278	-159.912	48.4525	-37.6647	-163.46	44.9671	-55.952	-157.934	45.3192	-77.711	-176.061	37.7661	-22.2158	-174.913	35.9665	-44.3185	-171.922	37.4585	-61.9311	-174.909	53.9627	7.09902	-177.575	59.2697	29.1315	-149.706	67.7561	22.5876	
10	0.0833333	-123.044	53.3497	34.7432	-104.523	45.2425	12.4841	-108.398	34.3077	-10.7963	-124.819	19.2191	-26.0587	-128.029	57.6644	-33.6044	-124.957	56.6614	-53.3494	-126.539	55.829	-78.1016	-142.688	53.6159	-43.6942	-139.82	51.9397	-61.8229	-143.225	51.8365	-86.1335	-162.406	44.014	-36.5351	-159.288	43.9993	-56.0857	-154.254	46.3481	-78.5538	-172.811	36.5735	-22.7467	-171.242	36.329	-43.5663	-168.688	37.2913	-61.1734	-171.695	52.9385	7.08826	-173.639	57.5449	27.9039	-148.694	66.7332	20.8362	
11	0.0916667	-124.711	48.0247	36.6684	-100.617	42.4478	12.7999	-104.962	32.7447	-11.2725	-122.945	19.6931	-23.9928	-124.787	55.4879	-34.1567	-123.452	53.904	-55.6488	-124.857	53.6288	-74.0827	-141.435	50.8322	-40.7429	-141.012	49.5235	-63.8435	-141.28	51.8108	-89.1628	-159.782	42.0928	-34.3713	-154.845	42.287	-55.0895	-155.564	43.1728	-75.1829	-169.548	36.2871	-27.3161	-168.372	34.4919	-40.8883	-169.947	36.31	-62.887	-169.639	52.5446	4.94126	-174.624	56.3705	29.1724	-142.934	63.1372	19.6983	
12	0.1	-124.562	46.9944	31.0817	-107.18	38.5444	10.9217	-107.089	29.2087	-13.7621	-124.185	17.2135	-30.1834	-125.233	53.7971	-36.7169	-123.375	53.0458	-56.1145	-125.764	53.2238	-74.3032	-141.113	50.4273	-43.6575	-142.699	49.1795	-66.2264	-145.313	51.8251	-86.0662	-163.059	42.8403	-36.8504	-156.001	43.5811	-58.9975	-157.248	44.1248	-77.7095	-175.965	35.3486	-24.3521	-172.742	35.2012	-41.0897	-171.064	39.8233	-63.5483	-164.937	51.7664	3.91666	-171.43	56.8582	31.5187	-144.499	61.0017	20.6866	
13	0.108333	-124.783	41.1932	31.6428	-107.644	33.2197	4.45668	-114.126	26.4446	-19.9636	-133.843	15.9931	-34.3418	-133.178	51.7845	-35.6956	-131.788	52.2945	-56.016	-133.658	54.3884	-81.121	-148.241	52.8869	-47.2687	-147.674	52.5121	-67.7433	-150.161	55.946	-87.6981	-165.771	48.2463	-39.6993	-165.067	47.5095	-57.0151	-163.969	49.5958	-77.6081	-178.044	43.5076	-28.485	-179.598	42.2741	-47.5004	-176.702	46.3436	-63.8993	-167.933	54.6578	3.16109	-170.664	61.5195	28.6328	-144.556	62.7451	20.7408	
14	0.116667	-127.621	35.8606	26.9159	-115.257	23.9702	2.60268	-123.112	18.0247	-22.5039	-144.821	14.0819	-36.2979	-140.626	49.5294	-41.9074	-142.115	49.8059	-61.3108	-143.797	50.9968	-84.6641	-154.031	52.8918	-46.275	-155.555	53.5447	-68.7302	-161.704	59.3704	-95.1883	-172.41	53.1072	-39.6869	-173.644	54.0064	-60.4742	-172.62	54.7698	-78.6151	-189.486	51.6113	-29.1168	-188.986	51.2588	-43.0578	-187.924	55.6902	-66.3605	-174.197	60.5698	5.01516	-169.506	62.1595	27.4704	-146.008	59.6916	15.2558	
15	0.125	-133.372	29.9605	24.0784	-125.155	16.8075	-1.32835	-134.937	11.6535	-27.114	-153.656	6.07185	-37.2829	-144.327	41.5128	-43.5646	-145.857	40.3972	-65.5102	-154.246	42.1619	-89.9046	-162.571	49.2826	-47.2523	-161.977	47.8941	-73.7977	-167.043	51.7323	-94.1674	-178.817	52.4474	-39.1848	-178.82	50.7523	-60.2737	-181.786	52.2381	-81.0845	-194.851	53.9416	-28.1449	-192.717	51.702	-44.951	-191.6	53.7144	-65.8977	-173.623	59.318	0.549373	-169.616	64.1142	26.194	-144.911	56.634	9.66468	
16	0.133333	-132.714	32.4475	26.0811	-124.421	15.6262	-1.91462	-134.632	7.18149	-20.5431	-157.329	0.776912	-34.4084	-146.693	31.7725	-41.6716	-152.286	25.4988	-66.312	-155.13	22.5449	-86.1777	-166.588	35.9684	-46.5139	-168.729	31.3699	-71.1789	-171.819	30.0163	-93.3269	-178.684	37.4189	-41.5372	-183.758	34.85	-62.8409	-184.856	32.3731	-84.9267	-195.924	40.1968	-29.5203	-195.952	36.863	-44.5188	-195.645	34.501	-63.8362	-177.06	55.19	2.37206	-171.703	63.3322	20.8212	-149.705	55.2975	6.51169	
17	0.141667	-131.583	42.0626	24.1249	-120.468	23.9815	5.35526	-128.36	8.65541	-13.8026	-146.981	-6.73134	-25.7847	-142.127	24.1546	-39.7834	-147.973	10.7148	-61.3537	-148.886	2.60166	-79.2444	-163.639	19.1198	-48.4555	-162.271	10.0948	-65.784	-168.094	1.38765	-91.6173	-180.332	19.0065	-39.409	-180.754	11.0524	-55.885	-175.755	2.56381	-77.0349	-192.916	20.6391	-23.8003	-194.184	12.4061	-43.1699	-192.295	8.04377	-57.2937	-180.013	45.0807	-2.05873	-182.087	57.3238	17.3074	-157.739	55.1586	5.49979	
